
<global>
amp_veltrack=0
</global>

<group>
amp_veltrack=0
ampeg_decay=20
ampeg_release=0.35
ampeg_sustain=0
group_label=Group_0-45
lpc_hicc1=42
lpc_locc1=0

<region>
hikey=g#6
hivel=127
lokey=g6
lovel=1
lpc=C8EVQrkL7cGm8oRBIqmvvomsOMCnSmlBJvxZwGdri0HyAhNBF2wrQK9mqECLURRA4btnQQIUtsDW9yPBapk+QR242EDocyPAAqcKQZv0zr+C0M8/eWSHv+rAK8F0vtNA
lpc_rms=-20.90
offset=264
pitch_keycenter=G#6
sample=Flute_invertedmordent_wholetone_PP_G#6.opus
tune=-45
</region>

<region>
hikey=g#5
hivel=127
lokey=g5
lovel=1
lpc=o2PMQXt5FMLZXrVBDBupwHIBLT+19QNBCEynwI7IWL9e8+pA8QqHwGQ0ykAvCXzAyw4GQKyhN0AigBHAFH2cQJZdCcAxQOo/Je2BQGc5T79t55M+F2JnvwVzXkC4lfQ/
lpc_rms=-31.21
pitch_keycenter=g#5
sample=Flute_invertedmordent_wholetone_PP_G#5.opus
tune=-15
</region>

<region>
hikey=g#4
hivel=127
lokey=g4
lovel=1
lpc=cOHeQW/nkMJJQIdCsL+VwYGJZsHGhF1BmTwpQEdbCsGeAkJArWuDwPf2EkE88S7BaVweQcl8msDWnng/jiBOwNw4VkDTkAFAOhdXwOq7J7+EGGVA1PMjwHTnyL6TBa4/
lpc_rms=-40.72
pitch_keycenter=g#4
sample=Flute_invertedmordent_wholetone_PP_G#4.opus
tune=-3
</region>

<region>
hikey=f#6
hivel=127
lokey=f6
lovel=1
lpc=f3rKQS/91MFKo2FB2gntvzxmLcDcxopBuQEZwdAWskDuYO5A1vSfP3wNxkCGjry/ylQNQe6A8j7EwblAAOWTwIWYOcDZxxZBVIB8vuuHv0DHEgk/UBSzwJyw40AigSvA
lpc_rms=-24.39
offset=745
pitch_keycenter=f#6
sample=Flute_invertedmordent_wholetone_PP_F#6.opus
tune=-25
</region>

<region>
hikey=f#5
hivel=127
lokey=f5
lovel=1
lpc=BypxQeFg1sGqiaRBo2Y3wSYBskByHYVAXYurwJaP8T/JlwY94B0Xvg1FzT9Oxoy/Mq01Px/TGz3qpIA/8JQIvu9CPz8qLwHAADKCQJMtNcCt8s0/7HEov/jTjLwnygJA
lpc_rms=-38.02
offset=2055
pitch_keycenter=f#5
sample=Flute_invertedmordent_wholetone_PP_F#5.opus
tune=-12
</region>

<region>
hikey=f#4
hivel=127
lokey=f4
lovel=1
lpc=TkZaQoHJCsOOfgtDDPmrwqQ7bkKxASrCOD+aQbUGX8GNHo5BQIYAwYxDpcBhwLNA2IjWP0EWacD3lka/T/kFQER56b/g57hAO8wwwa5TLEFQ0rPAvEeuQBal78A9nZBA
lpc_rms=-34.58
pitch_keycenter=f#4
sample=Flute_invertedmordent_wholetone_PP_F#4.opus
tune=-1
</region>

<region>
hikey=e6
hivel=127
lokey=d#6
lovel=1
lpc=z/nMQVr1t8HviQBBcvN9QHFrBsGPn0JBtvctQPJ+DsBB7PJAADatP1jVqkAHz5y/6PnfQFewaj/X/0dAndijQLIz7D/pPc7Afde4PtNHmkCi4w1AvOtNQGg7FEDy982/
lpc_rms=-26.30
offset=446
pitch_keycenter=e6
sample=Flute_invertedmordent_wholetone_PP_E6.opus
tune=-25
</region>

<region>
hikey=e5
hivel=127
lokey=d#5
lovel=1
lpc=SBneQeVPRsL2HAlChxxzwVz6gj+I0yFBbtLXwCwdC0BZKOJAVsY7wfp/B0EQlwXBFHoXQdCgp8Ay674/uVMSQOjtO8DSJ4BAAVyfv7M2QcA8iJdAltQ2wM02hL/12H1A
lpc_rms=-33.90
pitch_keycenter=e5
sample=Flute_invertedmordent_wholetone_PP_E5.opus
tune=+9
</region>

<region>
hikey=e4
hivel=127
lokey=d#4
lovel=1
lpc=OSdHQrthDcOr0RpDWkuJwiNKkcFe8BpC3yIXwU1SR8HBMNFAE1mFPrdVvEA2qF7BaqiNQUjcfcHoFy5B04s0waflE0HDLhq/OqrivhaVTsDnjBk/SYsLQe8TUcG8BsNA
lpc_rms=-37.07
offset=253
pitch_keycenter=e4
sample=Flute_invertedmordent_wholetone_PP_E4.opus
tune=+11
</region>

<region>
hikey=d6
hivel=127
lokey=c#6
lovel=1
lpc=8TKOQfSnt8Gb6jpBrIEBwBiI4r/r7BdBYYOtwDi8xz8osVlA+6yLv/3+SUCMoAHAfDF8QP1g/j4c7/0/n1vavUe2QD9pMIQ/I+AGQFDCiL+P+GnATiyWQPPDgb8pswBA
lpc_rms=-31.82
offset=171
pitch_keycenter=d6
sample=Flute_invertedmordent_wholetone_PP_D6.opus
tune=-14
</region>

<region>
hikey=d5
hivel=127
lokey=c#5
lovel=1
lpc=LW3hQcyyhcIGD4ZCtxsawoTq5UDip4dBX6GWwQ7jEkFs2gbAlkaBwCfJu0Cf9HfArcyfQKAhjsBt5x9ARtpFwPvXEEAKojk+FzkLQBM/0r8O6w3AhjWyQCWAxsD9smJA
lpc_rms=-38.26
pitch_keycenter=d5
sample=Flute_invertedmordent_wholetone_PP_D5.opus
tune=-9
</region>

<region>
hikey=d4
hivel=127
lokey=c#4
lovel=1
lpc=H2yaQQ0rVMI01WxCHKUJwrp61ECu/y9BHMJPwbcc6z/N69tAppS/wMoaHUAMy76/5PQlQK7sm8DgiZ5AMkn5v4L1JD6QHxbANlu8QIRvp8DZE54/4l4mQHl7d8Co0eM/
lpc_rms=-44.15
pitch_keycenter=d4
sample=Flute_invertedmordent_wholetone_PP_D4.opus
tune=+17
</region>

<region>
hikey=c6
hivel=127
lokey=b5
lovel=1
lpc=NfxUQQGukcH11f5AQpuxQEPvCsEIQ8lASIZLPsLKZr/q6PQ/1JGbvwhtEUD+ZY2/9HQfQCGKDL99gxg/BWNQP8A0OD6Cmsc/r5NVv04xTT9t1FRA+WtwwKl2FcAljFJA
lpc_rms=-35.78
pitch_keycenter=c6
sample=Flute_invertedmordent_wholetone_PP_C6.opus
tune=-9
</region>

<region>
hikey=c5
hivel=127
lokey=b4
lovel=1
lpc=F1S0QW1gUsLtSktChRzbwX9esUC5DipB4BU3wXubpj+L+aZA1VfZwG3P20CiSPTAKT/jQDdWpcCT1yFABtWtPiiZuT20w969YVq5voIdir/w8hhAF6L+v4FqBUBYCb++
lpc_rms=-38.22
pitch_keycenter=c5
sample=Flute_invertedmordent_wholetone_PP_C5.opus
tune=-25
</region>

<region>
hikey=a#5
hivel=127
lokey=a5
lovel=1
lpc=n2eTQd6xssHO7v5Aeb2YQJimGcGeWztBYvTGv8mjs8DAYfBABvYtwNDiUEBuKdO/zWO1P/g5Xr/HFcU/K/FJQDhIEsBRDZQ/g2gZPwJcgj/perM/ZFLTvtgZjD+IirW/
lpc_rms=-33.60
pitch_keycenter=a#5
sample=Flute_invertedmordent_wholetone_PP_A#5.opus
tune=-3
</region>

<region>
hikey=a#4
hivel=127
lokey=a4
lovel=1
lpc=1GSmQgseTsPE01VDY0nkwlAbPMCA65lCEvZ8wnliY0Hz6FZBaIGuwdpRPkGm1ADA7TmJQBqGi8At2QdAXQ9fwSBRu0Eoj5TBenaVQVPhE8Gw07bAeQNuQVQ/rcEteHFB
lpc_rms=-30.58
pitch_keycenter=a#4
sample=Flute_invertedmordent_wholetone_PP_A#4.opus
tune=-7
</region>
</group>

<group>
amp_veltrack=0
ampeg_decay=20
ampeg_release=0.35
ampeg_sustain=0
group_label=Group_46-90
lpc_hicc1=84
lpc_locc1=43

<region>
hikey=g#6
hivel=127
lokey=g6
lovel=1
lpc=6w1lQjwUnMLSUVNCul8bwSMf+MAaxt9BS/tqwTowdEFRDFJBNTYHwR/fRUEWh6i/hKmLQcTwa8HOYF7B5KrqQV8wKsH/HkpAc7ZyQCQugMD1fv1AW5lgwSqcsEC34iXA
lpc_rms=-11.06
offset=645
pitch_keycenter=G#6
sample=Flute_invertedmordent_wholetone_MF_G#6.opus
tune=-40
</region>

<region>
hikey=g#5
hivel=127
lokey=g5
lovel=1
lpc=kluEQV9k78HTMb1BXiG2wFzd5sDCa3tBqvonwfiweL/gnwZBCCGzwEz3mkCJY4fAbKyOQEGq77/llbA+XeIoQJIO2r8ouBs+cl9bQDsIr787ao2/NILoP+/t+j/LhiG/
lpc_rms=-26.77
offset=720
pitch_keycenter=g#5
sample=Flute_invertedmordent_wholetone_MF_G#5.opus
tune=-20
</region>

<region>
hikey=g#4
hivel=127
lokey=g4
lovel=1
lpc=clqbQQhwPsJZqBlCs8cnwJQyhcF+CmNBWmlJwNqWZsAT+J4/uPCUPwLySj9hERTA2w0lQFq2fsDWTIFAkmHjvwwEMr8zl4VAboqjwA7ajT9Fwg5AYA+7P+rko8CPXhdA
lpc_rms=-30.01
offset=1129
pitch_keycenter=g#4
sample=Flute_invertedmordent_wholetone_MF_G#4.opus
tune=-10
</region>

<region>
hikey=f#6
hivel=127
lokey=f6
lovel=1
lpc=1zgiQpnhOcJWDeRBqUuVvs0SjcEIYQdChASFwefgOUHsahVBkx9cvkdeHUGjiQa/Ox0zQcazUMDH1WNBdcfqwKNhlsHBOAxCCe+BwV7dDkHfqjJBh66GwdhiZ0E9n9zA
lpc_rms=-18.02
offset=965
pitch_keycenter=f#6
sample=Flute_invertedmordent_wholetone_MF_F#6.opus
tune=-22
</region>

<region>
hikey=f#5
hivel=127
lokey=f5
lovel=1
lpc=cyfJQaLvT8LP8CZCpSfYwOTARcEm82hBwl4TwRNdsUB3lC++dRZFwO6c7kDAp/HABc5JQKQO/T8wqXG/oMogQICKwb9JwTe+BwVHQJ6FpcB6cLVAwNC+P5KWz8D++b1A
lpc_rms=-25.75
offset=535
pitch_keycenter=f#5
sample=Flute_invertedmordent_wholetone_MF_F#5.opus
tune=-12
</region>

<region>
hikey=f#4
hivel=127
lokey=f4
lovel=1
lpc=tx4lQrbD4MJTIuZCta5GwkxwE8Fa+QdC6nLFwdad1EDAYk7AkWh6QMLSF0Cp1ibBSyshQTas+8DLmQJB+RuywC9kSECxTK+/c55LQNgZFcHr+wJB6/GwP+nweMA/bVg/
lpc_rms=-28.37
offset=306
pitch_keycenter=f#4
sample=Flute_invertedmordent_wholetone_MF_F#4.opus
tune=+4
</region>

<region>
hikey=e6
hivel=127
lokey=d#6
lovel=1
lpc=O3/4QScbIMLXwrFBqLAXwHbzEMDmby9B7oavwACFfkD6XsxAK0RvwPnKAEE/orrA1L6mQD+yYEDMI5g+j43gPzB1tUATQwbB4QAIwaiVmUGb0dnADhbQvwDlbkBI6Py/
lpc_rms=-20.48
pitch_keycenter=e6
sample=Flute_invertedmordent_wholetone_MF_E6.opus
tune=-23
</region>

<region>
hikey=e5
hivel=127
lokey=d#5
lovel=1
lpc=MqkEQq+XkcLF8IBCEqX3wVZd1T8/g6ZBIhK1wbu7bEHkbWy9bExHwSV3JkGANNDAfrEZQfk/C8HDtlNABx3aP6HrPcCy9wlBOT8hwQLZ0kDOohPAljBDwAXtOkBd+vQ/
lpc_rms=-24.84
offset=515
pitch_keycenter=e5
sample=Flute_invertedmordent_wholetone_MF_E5.opus
tune=-1
</region>

<region>
hikey=e4
hivel=127
lokey=d#4
lovel=1
lpc=sy8EQsOGv8JxWehC64iswjS1LUJPznFAaOIDwkkR70FaEHHBrRk+P4GbOEFigYvB3r59QSlYOcHJ8zxBZBFgwZMwJEElRJ/AZD42QKxNvz/THG/AAfV8v6UEjUA6OgLA
lpc_rms=-30.37
pitch_keycenter=e4
sample=Flute_invertedmordent_wholetone_MF_E4.opus
tune=+5
</region>

<region>
hikey=d6
hivel=127
lokey=c#6
lovel=1
lpc=bS9cQeK5q8H2YWlBFHWWwANMDr8Kk7RAuzRpwAUrB0AUPUhAagZ7wDNEskDAgX3AmyouQJtpvD8NiBrAfROfQP74FcCJ0P4//eIJQA24KsAcuc7ASpQ0QYfUksAmiaI/
lpc_rms=-28.56
offset=213
pitch_keycenter=d6
sample=Flute_invertedmordent_wholetone_MF_D6.opus
tune=-22
</region>

<region>
hikey=d5
hivel=127
lokey=c#5
lovel=1
lpc=UI8TQv92s8I3QKNCbTi3wT6SssEy2xBC8oC8wQzwDkFKU4DAjhKdwDERSkFlvU3BcAAlQRRBH8D8Sni/cWZ8wE/Ea0AScm9A9kORwP0EAUAU+Ya/v9rHQPhqGMFraKFA
lpc_rms=-25.74
offset=1590
pitch_keycenter=d5
sample=Flute_invertedmordent_wholetone_MF_D5.opus
tune=-11
</region>

<region>
hikey=d4
hivel=127
lokey=c#4
lovel=1
lpc=Wt6MQcLUK8KBlCFC6LGowR0osUCFp71A6CnwwIuIikBtvE7Aku6sP8YPkj9ffXnAjeWuQPKrusBH1OlAf4TEwGTOWz/HQhpAG0fsvzEf2j8iYsK/vVqtPncGBD9QsYq+
lpc_rms=-37.26
pitch_keycenter=d4
sample=Flute_invertedmordent_wholetone_MF_D4.opus
tune=-2
</region>

<region>
hikey=c6
hivel=127
lokey=b5
lovel=1
lpc=JDu1QYRoEsLkFstB9AvGwMGExcAavohB4pROwaIdhkBQ3ek/8FUfwPpq7kBJxQLB0DwMQad0AcCzvYnAntIvQbAF+8Al4FVAYgnjP7seQcDqU7hAYxeJvzHOG8G98fVA
lpc_rms=-23.85
offset=507
pitch_keycenter=c6
sample=Flute_invertedmordent_wholetone_MF_C6.opus
tune=-26
</region>

<region>
hikey=c5
hivel=127
lokey=b4
lovel=1
lpc=TVinQcb3VMLhYDpCj4kQwd01N8FF+UBBgg8GwUXKlkCvZi2/yg+uwE5RBEHTFqzAI1yQQGf0g8DX/u0/FmfsvQZUhT7No46/NeGFP5sO5L9eHk5AZ5Vsv8G/OMDxHxhA
lpc_rms=-29.28
offset=271
pitch_keycenter=c5
sample=Flute_invertedmordent_wholetone_MF_C5.opus
tune=-22
</region>

<region>
hikey=a#5
hivel=127
lokey=a5
lovel=1
lpc=QrhoQeC91sHhjrpBOa4hwfdSU8BgvmdBaN1WwfwTxkBFVZM+qLJAwOVFt0CvHY/ATVaXQEcEPsAOSWE/tJ5NP/aCqb9s8dA/oY0Tv4p62j/v8PU/jXDEwBRU8EBuQXnA
lpc_rms=-28.24
offset=716
pitch_keycenter=a#5
sample=Flute_invertedmordent_wholetone_MF_A#5.opus
tune=-11
</region>

<region>
hikey=a#4
hivel=127
lokey=a4
lovel=1
lpc=GaA3Qq8A/8KdagBDtT8gwggW88FGkjJCOBnUwbbQvUA6sII+AwGrwNQBVkF3KXrBn7pFQRiEZ8CjjZ0/HNbTwIsDAEFyoMXAd359QKZEJ8AIYWdAur9QQD1+QsHfjOtA
lpc_rms=-24.50
pitch_keycenter=a#4
sample=Flute_invertedmordent_wholetone_MF_A#4.opus
tune=-7
</region>
</group>

<group>
amp_veltrack=0
ampeg_decay=20
ampeg_release=0.35
ampeg_sustain=0
group_label=Group_91-127
lpc_hicc1=127
lpc_locc1=85

<region>
hikey=g#6
hivel=127
lokey=g6
lovel=1
lpc=vY0fQjuxUMKYDyBCH2pqwfuwUUDQ8J9B64ZNwehZOUFhsUlBvLEqwa1glUGenS7A6Bf3QNhETMBRG1nBsjO3QRSjAcGQ85xA/bpoP5eu18C3yTNBtmdvwezkOEECn+7A
lpc_rms=-11.61
offset=247
pitch_keycenter=G#6
sample=Flute_invertedmordent_wholetone_FF_G#6.opus
tune=-53
</region>

<region>
hikey=g#5
hivel=127
lokey=f#5
lovel=1
lpc=9KCcQb8LEsKZEAZClW9owRlQBsDpnIVBtX+AwSKc7EB32C1AejWDwBK6jUBCT8y+sLdvP2SYED6L6N2/uriVQLMQDz8SDGzA79jcQFyKjMA41MA/Zv4eQOCQRb2RPI4/
lpc_rms=-21.40
offset=951
pitch_keycenter=g#5
sample=Flute_invertedmordent_wholetone_FF_G#5.opus
tune=-28
</region>

<region>
hikey=g#4
hivel=127
lokey=F4
lovel=1
lpc=ntNgQY+dCMJbotxBpHg/wC0xAcEZJd5AtwSMwKQu7T/ex6c/ThyVwFe5lUCm607Aly2AQF55I8BJRRDA5r6SQMjkQ8BogI8/wzRCv7FYlr+7g6NA1BtCwCgdAcAI7+4/
lpc_rms=-26.92
offset=483
pitch_keycenter=g#4
sample=Flute_invertedmordent_wholetone_FF_G#4.opus
tune=-13
</region>

<region>
hikey=f#6
hivel=127
lokey=f6
lovel=1
lpc=3uftQVsDO8KymhBCplJGwfl7t76x8pxBNQOHwe/8GEH8cWRASdAcQM24dUBX412/lLkGQQzxCsDoavxAfObvwCEc/sDiHedB8sehweQGO0ESS9y/f4YGwfk5c0HLL9TA
lpc_rms=-15.71
offset=78
pitch_keycenter=f#6
sample=Flute_invertedmordent_wholetone_FF_F#6.opus
tune=-34
</region>

<region>
hikey=e6
hivel=127
lokey=d#6
lovel=1
lpc=43s/QnPkbsK/Fw9C3n04wIfexMCy0qhBT18nwcOzCkFDgfJATawjwOzKM0H75sW/AawMQQREwr01qwZB9hHnPX7gLUGeHJTBpj3uwKQTFUKg48XBNodvQSnd7MDR3l9A
lpc_rms=-9.87
offset=128
pitch_keycenter=e6
sample=Flute_invertedmordent_wholetone_FF_E6.opus
tune=-40
</region>

<region>
hikey=f5
hivel=127
lokey=d#5
lovel=1
lpc=vih5QYoMAcK6I69Bp8WQP4vYL8Ht0xVBCBFNwDestD2A3ABA0++IwCN4gkBGazPA9N10QLV9hL/7MZPA53yhQGlZJ7+0pbA8SeGfPy2oUsCXbBFAH2SWP1YIa8A5UEtA
lpc_rms=-24.77
offset=1311
pitch_keycenter=E5
sample=Flute_invertedmordent_wholetone_FF_E5.opus
tune=-14
</region>

<region>
hikey=d6
hivel=127
lokey=c#6
lovel=1
lpc=ph6HQcYfycFiz5VB+1XywKJuob5X+QxBnXHKwLGIkUDOKsI/iHjav/UNPUA5+x4/PP6QPy7GwD8Jorg/yWuGv/TsVkAGjUO/SOI5QFKtgcCmYzfAgY0NQcldY8CqgrM/
lpc_rms=-20.45
offset=454
pitch_keycenter=d6
sample=Flute_invertedmordent_wholetone_FF_D6.opus
tune=-41
</region>

<region>
hikey=d5
hivel=127
lokey=c#5
lovel=1
lpc=e5eCQcapDcLaIe1BykcvwRqRAsAz+PVAtqYOwRuvAUFh5ru9UaMMwYjSH0Ed6LDABmAhQAZZi70cRmfA4AVlQC5hwj7T6jW+dsYSwKSpNUD8Csc+6xMYwDcIQL9x6xlA
lpc_rms=-23.23
offset=53
pitch_keycenter=d5
sample=Flute_invertedmordent_wholetone_FF_D5.opus
tune=-24
</region>

<region>
hikey=E4
hivel=127
lokey=c#4
lovel=1
lpc=RjeNQYmgJ8IhOhdCELyWwUFXqkB+999AvIwFwQg6fj86MNY/8wxCwEj3ckD+J9C+bRF8v+9gUj+Jsem/xUbiPmI5ED90rTg+0zySP0/aq79gPrg/KZsiwAcaFUDuwDa/
lpc_rms=-28.19
pitch_keycenter=d4
sample=Flute_invertedmordent_wholetone_FF_D4.opus
</region>

<region>
hikey=c6
hivel=127
lokey=b5
lovel=1
lpc=ss+AQZhkw8FFOItBmpn1wFnyF0AHwGBAzoMBwIT9uT+BLwdAI20Yv3WjIj+zMWs/dknxPwNyTT6xB3M/0lshPtSFuD+6ba0+2aa7P9NGlTurN+8/vcbZvjAc7MCrPPtA
lpc_rms=-21.60
offset=335
pitch_keycenter=c6
sample=Flute_invertedmordent_wholetone_FF_C6.opus
tune=-44
</region>

<region>
hikey=c5
hivel=127
lokey=b4
lovel=1
lpc=WLphQaPbB8IyOu1BeY0dwbKbisBM2GFBZnRrwQV1nUCiEVVAJC+ywOjx1UBjwqjAp1bfP3qZ7r+hPiRA9jLjvl5kZ7+Mb7U/CUATPpR3EcCr9x5AKBMkwC6Y9z8DZa++
lpc_rms=-23.48
offset=687
pitch_keycenter=c5
sample=Flute_invertedmordent_wholetone_FF_C5.opus
tune=-29
</region>

<region>
hikey=a#5
hivel=127
lokey=a5
lovel=1
lpc=7I1NQVJyxcGOD51BidZzwHjx08BY6R1BABvgwLPHK0Bqwf0/asaJwDsvoUAch/u/PJ0SwHpyU0B6IKI/2LBRwMxnBUBJ1hc+u1cYv47wZD4pjKs/cm+nv7uH3z/b/vu/
lpc_rms=-24.06
pitch_keycenter=a#5
sample=Flute_invertedmordent_wholetone_FF_A#5.opus
tune=-29
</region>

<region>
hikey=a#4
hivel=127
lokey=a4
lovel=1
lpc=qGG9QVl3Y8LnbkRCOlVKwcOdAMH3XlhBzMdkwZXJ/UC5EwZAu5sTwSuPJEFYVPzAuvCxQA2mcMAUygJAIBDkvnFfxT8cWKXA9HW1QIKwVcAtYwVAXDYcQFWkrMBB5UBA
lpc_rms=-20.96
offset=356
pitch_keycenter=a#4
sample=Flute_invertedmordent_wholetone_FF_A#4.opus
tune=-9
</region>
</group>

<group>
amp_veltrack=0
ampeg_attack=2
ampeg_release=0.35
group_label=PP
lpc_hicc1=42
lpc_locc1=0
volume=-3

<region>
hivel=127
key=A#4
loop_end=252058
loop_mode=loop_continuous
loop_start=81936
loop_xfade=20614
lovel=0
lpc=O1EsQhP/wsLlmqtCk5wHwhCYOcEDug9CIoGnwRNCGcFeacVBygOjweiTs0AjcThApY4UQCnadsFVK5lBgQNlwbnKx0AVsb1AInZGwAgFoMCI4YpAl7CfwBRvUkB+4/c/
lpc_rms=-29.33
sample=Flute2_sustain_PP_A#4.opus
tune=-1
</region>

<region>
hivel=127
key=A#5
loop_end=245197
loop_mode=loop_continuous
loop_start=79705
loop_xfade=20053
lovel=0
lpc=KpJtQn3DQcKWJ6BBg042QIGCesH/GyRCketUwcsZ2UAYZ01BdbMbwan620Cm/dJAyrEAQcH8mUBbzR9B8IuCwBoMdUDtVnNAsjiOQHOOOUH3kQBB0d2lP2HeNUCllF3A
lpc_rms=-26.27
sample=Flute2_sustain_PP_A#5.opus
tune=-1
</region>

<region>
hivel=127
key=A4
loop_end=255045
loop_mode=loop_continuous
loop_start=82907
loop_xfade=20858
lovel=0
lpc=2ppBQjuo88KbTghDi1rMwtuwI0L80PVByIhywljvNUJjrU/B8lyQwSt2+kE6ZNbBfjqSQWYmPMEnS3ZACIBpwAz090CNcqPAIr60QJfl2L+XB7TAHsjlQCKoD8F/F8xA
lpc_rms=-30.58
sample=Flute2_sustain_PP_A4.opus
</region>

<region>
hivel=127
key=A5
loop_end=246949
loop_mode=loop_continuous
loop_start=80275
loop_xfade=20196
lovel=0
lpc=KMX1Qfn+w8GIXIFBAqKWP3g58sCcnsBBqo89waNB50CnVgxBLLA+v9KiwUDbldG/Exz9PyAiKEFZL8NAWYc1wAAm3kDc1mXAOGwwQTWwHEDrg06/XhsPQRDG2T9Z89NA
lpc_rms=-30.89
sample=Flute2_sustain_PP_A5.opus
tune=+1
</region>

<region>
hivel=127
key=B4
loop_end=248027
loop_mode=loop_continuous
loop_start=80625
loop_xfade=20284
lovel=0
lpc=80FgQhjtBcOojOlCDIUrwt7cw7+815RBAs4FweyAR8GHP4hB71OTwXHsnkHJEWTB6Id3QXvHocFcRoJBCF9XwWBUG0HeHIc/6oRJwH3tGMBG9btAR69kwJJvtD1Nir4/
lpc_rms=-27.89
sample=Flute2_sustain_PP_B4.opus
</region>

<region>
hivel=127
key=B5
loop_end=244349
loop_mode=loop_continuous
loop_start=79429
loop_xfade=19983
lovel=0
lpc=8w92Qor6VMKeYc1B3sjkwDbr9cAtDiVCs8/FwcwDtkD2o0xASAwhPt42kEFj8/HAIYtfP8EsBUAqQAxBLGC5QHnqor8Gxdq/u5arPwMUcEHBcAJAvJkUwFif3D/SXF3B
lpc_rms=-25.94
sample=Flute2_sustain_PP_B5.opus
</region>

<region>
hivel=127
key=C#4
loop_end=248672
loop_mode=loop_continuous
loop_start=80835
loop_xfade=20337
lovel=0
lpc=wbMOQit7xMLSheVCRkGnwi/MC0LqrCZBVX+SwTX4QEDsL3JAjI+UwMRsVT8V7pFACnKMwAe/BkB8pS4/Z4muwFInKEEoyxXBhQX5QOSwC8FvBPhAv9IIwdUO/EBIDjTA
lpc_rms=-33.74
sample=Flute2_sustain_PP_C#4.opus
tune=-1
</region>

<region>
hivel=127
key=C#5
loop_end=244893
loop_mode=loop_continuous
loop_start=79606
loop_xfade=20028
lovel=0
lpc=Ca0/QhEIvcKwO5hC4SY0wjHkEkFO6AJCogD8wV3+DUER2wtB6+WXwTV1f0GfdyDB+eWjQGsbmMBI7D1BHotFwRiuyj9LLAhACga4QKX3Aj/3Cou/ougBwM6srMAlzc5A
lpc_rms=-31.38
sample=Flute2_sustain_PP_C#5.opus
</region>

<region>
hivel=127
key=C#6
loop_end=241027
loop_mode=loop_continuous
loop_start=78350
loop_xfade=19712
lovel=0
lpc=GQOeQWrwVMHjJ9FA8BtBP1iQE8BxnPJAHlhmwFLwn0B7I0O/uhc7PwmFdUBc72s/3ciGQLeOP8DZo1ZA5ZvLP9K4cz967sk/hJw5QLfspz7Q5jW/bOZUwEB+PMBwJytA
lpc_rms=-34.89
sample=Flute2_sustain_PP_C#6.opus
tune=-2
</region>

<region>
hivel=127
key=C5
loop_end=253570
loop_mode=loop_continuous
loop_start=82427
loop_xfade=20737
lovel=0
lpc=sx5GQkLF9MIU5AdD82vFwtavO0LF3WVA9Du0wQuGqUAk5bhBW/AXworgFkKA9QXCNU3GQZzjZcGsyixBZqJMwXq7IEG0ivDA6oM4QdbjncCVagvAjaeqP67ptj/kgjG+
lpc_rms=-30.66
sample=Flute2_sustain_PP_C5.opus
tune=-1
</region>

<region>
hivel=127
key=C6
loop_end=250847
loop_mode=loop_continuous
loop_start=81542
loop_xfade=20515
lovel=0
lpc=msBHQtny58FEdoZBoxARQDoMH8GfrLlBLOYswW9kjL7v5xtBBv3gv3UmCUH1x6bAkp1vQBj8nEBwnz9A9OUDPx8VTEAHVlS/MFKbQDl3uUBTj20/kiuRv0gTEMGvkW3B
lpc_rms=-27.38
sample=Flute2_sustain_PP_C6.opus
</region>

<region>
hivel=127
key=D#4
loop_end=245679
loop_mode=loop_continuous
loop_start=79862
loop_xfade=20092
lovel=0
lpc=qsgVQvoi8MI5zSVDuJUBw5QrUUJv4ohByW8zwtsqyUH5VfRAucTVwVAu40FH6X/BohhQPvNmqUCuYbA/ALb7wF4WFkG+8vbAXv6iQAYV6r+hEcm/9eOlQLZXzMDMASlA
lpc_rms=-36.20
sample=Flute2_sustain_PP_D#4.opus
</region>

<region>
hivel=127
key=D#5
loop_end=247834
loop_mode=loop_continuous
loop_start=80563
loop_xfade=20268
lovel=0
lpc=BDECQqFcT8JQ2zBCbCgBwhHkg0GeD4s/vIAowf6HCkFMyvk/ibmRwLo+gkCg5iDBrIsnQS3a4MBtPXRAYGfjvnne8j7IMgVAaSyAQCyQBb+lrCs+raolP73pFsDBy+4/
lpc_rms=-34.27
sample=Flute2_sustain_PP_D#5.opus
tune=+1
</region>

<region>
hivel=127
key=D#6
loop_end=247230
loop_mode=loop_continuous
loop_start=80366
loop_xfade=20219
lovel=0
lpc=UJUJQg5VQcF8DtlAk9gSQYbeQMG6wElB7bkYQdSPaMA7egNBepwoQNBf90AW3KBAN4eqQEqFLz9zq51ABMQTQWS0jUC5u25AlRknv3mvQsGpz/U//pMfP27DGj0iEcpA
lpc_rms=-30.97
sample=Flute2_sustain_PP_D#6.opus
tune=+1
</region>

<region>
hivel=127
key=D4
loop_end=238034
loop_mode=loop_continuous
loop_start=77377
loop_xfade=19467
lovel=0
lpc=gJa5QbwChsKM96hCSTR0wrI3mEEdV2BBCw2xwaBBSEEbcFi/mCS8wMsgzEBbMEXAspWVvenF0D1MJn1Am2kHwRcTJUFF2f3A6hePQCgDqL9bd7q/OHkPQLuz8b+pnFk/
lpc_rms=-43.31
sample=Flute2_sustain_PP_D4.opus
tune=-2
</region>

<region>
hivel=127
key=D5
loop_end=237334
loop_mode=loop_continuous
loop_start=77149
loop_xfade=19410
lovel=0
lpc=2sAkQpBd2MLS6/lCGNG6wkIPIULpisZBnV9swndISEKqSpnB81kLwSLprkEWpa3BV/ESQVV3qD8lsQs/aPaBv3ngEEB/6QPBry5JQaYq4cCoKD3An34SQci6KMGm3sdA
lpc_rms=-32.87
sample=Flute2_sustain_PP_D5.opus
</region>

<region>
hivel=127
key=D6
loop_end=249446
loop_mode=loop_continuous
loop_start=81086
loop_xfade=20400
lovel=0
lpc=U5FTQoyLAcK5HGdB/5BcwM7bk8BOeclBVRQAwWViMkFoEehASDQpQKXkPUHeTVRAYJ+OQKLy9UAiVOZAD2+GQFUqOkEX/hnAERyBQQ8JDMCW2pHBgg4dvPvl8EAZAUJB
lpc_rms=-25.25
sample=Flute2_sustain_PP_D6.opus
tune=+1
</region>

<region>
hivel=127
key=E4
loop_end=238188
loop_mode=loop_continuous
loop_start=77427
loop_xfade=19479
lovel=0
lpc=5BUpQq0w8cKMEQhDO0eXwrzjHEHYbeRB7BbhwXvKNkDv6i5BwBpUwdQIPkF9dirAxh5YvwhZBsHE9ItBCDecwVssV0FPDSa/Zi6NwECv6z+wQrS/IOoFwLBrhUCL5Xq/
lpc_rms=-34.41
sample=Flute2_sustain_PP_E4.opus
</region>

<region>
hivel=127
key=E5
loop_end=236074
loop_mode=loop_continuous
loop_start=76739
loop_xfade=19307
lovel=0
lpc=8X2ZQYt2BsJBu6FB/rTYwFHDMcBbJ5pBwxOKwdM6nEB7nZG/BlfpPj2w8z800RXAMa9qQIDjk8DbRttAGhmjwKo9WD/xvRG/FDYtQCKs/T8wuVbAdrX6P6wFocDVUKxA
lpc_rms=-31.88
sample=Flute2_sustain_PP_E5.opus
</region>

<region>
hivel=127
key=E6
loop_end=241595
loop_mode=loop_continuous
loop_start=78534
loop_xfade=19758
lovel=0
lpc=8kYJQVpPhcBZPvQ/tWGZPzvZx7+hsg1AOj+zP37rcT/SH7c/6YoTPjH9H0DnbsU+s+qPPwYAoj+6G34/zd+kP18czj8pmgm/EoxLwHhYCz+akY4/21SGPgqN9z8/WEa/
lpc_rms=-41.99
sample=Flute2_sustain_PP_E6.opus
tune=-2
</region>

<region>
hivel=127
key=F#4
loop_end=246785
loop_mode=loop_continuous
loop_start=80221
loop_xfade=20183
lovel=0
lpc=d/kWQqBaxcIDWuBCt6GUwsEwOUErLDFC48xTwsKoz0GfggpALmKbwR9IpUFcBEHBOUeWQN7+0T51ak7A4sWJv2HC/ECKOUPBgUVmQVmLBsE19kPAfu0QQbPpBsEHTY5A
lpc_rms=-33.48
sample=Flute2_sustain_PP_F#4.opus
tune=-1
</region>

<region>
hivel=127
key=F#5
loop_end=243882
loop_mode=loop_continuous
loop_start=79278
loop_xfade=19945
lovel=0
lpc=otPIQbnvE8LEr79B0xQTwQHD1r4kgUtBVcpfwaJpCkHvd+g/T/rBPm1fWj9isITAI8vvPjChQECRYDS9whuaQCvTgD5ZREjAcYKhQCkBpsBpJBlAQ6elP/SKO7/zuZ9A
lpc_rms=-32.35
sample=Flute2_sustain_PP_F#5.opus
</region>

<region>
hivel=127
key=F#6
loop_end=246232
loop_mode=loop_continuous
loop_start=80042
loop_xfade=20137
lovel=0
lpc=OAJ+Qpe508FN0CdBMfKvwNZGc8FtGhNCFOBpwGmwvEBRiodBD4wQv1AoW0F4n+hAlL11QDHU2UDDGltBe2K2wBeWhsE7uLXA3GpKQfKBZEG/4ABBIgCGwFjp0sCeWaJA
lpc_rms=-23.16
sample=Flute2_sustain_PP_F#6.opus
</region>

<region>
hivel=127
key=F4
loop_end=240891
loop_mode=loop_continuous
loop_start=78306
loop_xfade=19700
lovel=0
lpc=dc4gQgQY5sL71gpDsVWywqIQGEGl7jVCHGscwnhFokCjDnJByXCjwYE7SUEourC/l7ogwBlx0b74VRBBeRmWwTBfnUGy4UjBHVocQY8C/cCUZU4/Qf7mQHsnLsF6vrtA
lpc_rms=-34.78
sample=Flute2_sustain_PP_F4.opus
</region>

<region>
hivel=127
key=F5
loop_end=241670
loop_mode=loop_continuous
loop_start=78559
loop_xfade=19764
lovel=0
lpc=NG94Qb+crsFakzxBLXFfwJtIacDC2ilBgvPrwC7SHkC8Z4JA7TZ0wIUvIkDdvB/AFDwmP1A+Zz+oRVK/U89LQHJu0b5Znfw+cMa2PyN1x79GmKC/o+IAQLeZO8DbwqBA
lpc_rms=-34.86
sample=Flute2_sustain_PP_F5.opus
</region>

<region>
hivel=127
key=F6
loop_end=248373
loop_mode=loop_continuous
loop_start=80738
loop_xfade=20312
lovel=0
lpc=74UOQt0d9sCBA5Y/wAajQNlNWMHNY1xBL/79QPpK3b6M6gtBLWnSPiaG8UBKeFk/bLMCQZ067j6v43VA/pIPQWsLeMAgmYDBSsQTwNogkECuNZZA/8j4QI0nwD6GPLTA
lpc_rms=-30.64
sample=Flute2_sustain_PP_F6.opus
</region>

<region>
hivel=127
key=G#4
loop_end=246198
loop_mode=loop_continuous
loop_start=80031
loop_xfade=20134
lovel=0
lpc=HHyLQTAjMsI5nkxCR5QZwmI8cEF/r05BILu5wQ8LaEFiRynA98cNwfFeU0EYSgzBI3G9QKOllcCSxAVAxywfwOWdG0Bk91i/2BFCQJWHXsDlckA/t60kPgWJiL+wLNM/
lpc_rms=-39.88
sample=Flute2_sustain_PP_G#4.opus
tune=+1
</region>

<region>
hivel=127
key=G#5
loop_end=245041
loop_mode=loop_continuous
loop_start=79654
loop_xfade=20040
lovel=0
lpc=uRk+QYzNHMHGqvM/njCdQD4vRMBgh4dA2kJ5P/lsGcBKKzFAPuc6QMICoz4pUY+/vnvpP2Uvp76vNYJA+2DHP4DWFMAcvpw/iVkoQJ1FvD5yeAtAYmx5v4MTdD74CY5A
lpc_rms=-37.79
sample=Flute2_sustain_PP_G#5.opus
</region>

<region>
hivel=127
key=G#6
loop_end=253367
loop_mode=loop_continuous
loop_start=82361
loop_xfade=20721
lovel=0
lpc=ePFLQY+BNsBwXF9AAiHzPw16WsDOhL1A1SMev5bTkT9ieWFA3xEnvuPkLEAZNvg/tVwhQCcp0DyJoEfAA8JIwGyAFT/TyF0/evepP36QeT/pGp88aLMiPx2EEj25QAk/
lpc_rms=-37.79
sample=Flute2_sustain_PP_G#6.opus
tune=-1
</region>

<region>
hivel=127
key=G4
loop_end=245382
loop_mode=loop_continuous
loop_start=79765
loop_xfade=20068
lovel=0
lpc=2ZwHQktWvMKFi9JCEoBawov/uMBj2ypCs3Mawq4/+0CHsTFB2v4twS6RgUCPN3U96PSPQP/BD8FhDZ1A6nQpvwzLOkCIHyzBkYiLQQ5xNsH2YHTABph1QZMJicEyOgVB
lpc_rms=-34.32
sample=Flute2_sustain_PP_G4.opus
tune=+1
</region>

<region>
hivel=127
key=G5
loop_end=240841
loop_mode=loop_continuous
loop_start=78289
loop_xfade=19696
lovel=0
lpc=EH2gQTgjqcFaOI1AwXH4QLKuHcHgImNBq7kuwCxS0cAAehFBfuMAwFmPhz0sv0tAy/zkPi6LV8BLkppAYIiXQPsuoMAQ6j9A/znCPzZJib+We45AeyAEwGF627+OxupA
lpc_rms=-33.84
sample=Flute2_sustain_PP_G5.opus
tune=+1
</region>

<region>
hivel=127
key=G6
loop_end=239680
loop_mode=loop_continuous
loop_start=77912
loop_xfade=19601
lovel=0
lpc=VGCZQVaYBcGhRWNAngpIQL1138C0OgBB80gwP3Koar+eWc9ANmU3PoI4RUCC9aw/to58QOR4kT+CcwxAfKL2wL14j7+OiYpApivevYAGjEB06aY9GD46v20IJkCuzXC+
lpc_rms=-35.58
sample=Flute2_sustain_PP_G6.opus
tune=-1
</region>
</group>

<group>
amp_veltrack=0
ampeg_attack=2
ampeg_release=0.35
group_label=MF
lpc_hicc1=84
lpc_locc1=43
volume=-3

<region>
hivel=127
key=A#4
loop_end=246372
loop_mode=loop_continuous
loop_start=80087
loop_xfade=20149
lovel=0
lpc=3XiTQoobdcPHx6VDuChsw2miyELpf+LB2nSHQd4bKsK52UlCfSS+webUbEE80QzC27o7QsPmDcLiY45BFJkLwMX8Y8HQMrFBvdh6wSD9JEG2FxLB+AGVQANmOMBDxBtA
lpc_rms=-24.03
sample=Flute2_sustain_MF_A#4.opus
</region>

<region>
hivel=127
key=A#5
loop_end=252615
loop_mode=loop_continuous
loop_start=82117
loop_xfade=20659
lovel=0
lpc=wdv7QUUYNMIEQxNC+ZydwH5igsFLyuNBl0QgwUwescAYlHZBPhYLwY2VLEGqxpLAg4AAQSul6MByiDtBfTKEwL9hwUAMYgRAxQ/RwI3OMEEZUrdAutVqwXKpr0G2iibB
lpc_rms=-24.20
sample=Flute2_sustain_MF_A#5.opus
tune=+2
</region>

<region>
hivel=127
key=A4
loop_end=254674
loop_mode=loop_continuous
loop_start=82786
loop_xfade=20828
lovel=0
lpc=ITIpQrD528KO6OFCScuGwu+exEGrcp1BN6MhwmdktUGQbbu/UhbgwIkhFEFQ2iHBhPkoQVKn8sD0sAJBJpXvwPHLNz+iRL4/69EdPmaDez+ZMRpA+0rgwG1V9j9O/wNA
lpc_rms=-24.06
sample=Flute2_sustain_MF_A4.opus
</region>

<region>
hivel=127
key=A5
loop_end=250488
loop_mode=loop_continuous
loop_start=81425
loop_xfade=20485
lovel=0
lpc=oi9sQtFbqsJ0VJBCDqGSweuGkT+v7bhAirFtQUMiIsE7G4JBDAoDwXDsu0ELnlbB7Q2KQaU8ssA2PNtAafzrQNRvsUC6ygI/dJv9QN6gL7/7mWNBY+WwwApQ0kA6siJB
lpc_rms=-20.42
sample=Flute2_sustain_MF_A5.opus
</region>

<region>
hivel=127
key=B4
loop_end=245844
loop_mode=loop_continuous
loop_start=79915
loop_xfade=20106
lovel=0
lpc=jzRJQs5vDcP6DR1D0v2mwvzjAUERUJ5Bk/JbQGgRD8JEng5CKRCLwXPch0FHwObBvFPKQULyCMFgJ6DAcVMmQcs0ucDOsLq/EjKwQHvZD8GqXBdBUtxPv+5/8sA2HqVA
lpc_rms=-22.90
sample=Flute2_sustain_MF_B4.opus
tune=+1
</region>

<region>
hivel=127
key=B5
loop_end=254415
loop_mode=loop_continuous
loop_start=82702
loop_xfade=20806
lovel=0
lpc=nQyhQquPucJpToxCprQJwn3AHUFSNZBBY8owwZP0nUD5xPlA0loGwSK5rUFn8IvBpypdQWsgwsBi6G1BZg2zwLoE5kDy2wbAl1OJQCfQ3EBMUe0+hU8YwVMd50GbCRTC
lpc_rms=-16.41
sample=Flute2_sustain_MF_B5.opus
tune=-1
</region>

<region>
hivel=127
key=C#4
loop_end=249331
loop_mode=loop_continuous
loop_start=81049
loop_xfade=20391
lovel=0
lpc=kcijQT8COsKIkSFCSFvMwTx7c0EEhe0/ZdwOwUigLUBBoxpAm9kqwJCfDECQ6pi/li3jv6rtNT+sMNE/bTIjv5Bl0j+ArFPA15COQG3Pn8DHgZpAadK8wGx6rkCJgf6/
lpc_rms=-32.68
sample=Flute2_sustain_MF_C#4.opus
</region>

<region>
hivel=127
key=C#5
loop_end=249291
loop_mode=loop_continuous
loop_start=81036
loop_xfade=20387
lovel=0
lpc=a82fQeJUEcLXEsZBYh2FwHTKHsGWhI5B9IMnwayKrMAXyyRBo9LKwCe0jEDQhx/ADA7MPjrFOMA4Ja9AVUdIwCyuPj57OYG+QyAOvoGNTUBx6os+GI2OvyZ4BD6lngo/
lpc_rms=-30.75
sample=Flute2_sustain_MF_C#5.opus
</region>

<region>
hivel=127
key=C#6
loop_end=248005
loop_mode=loop_continuous
loop_start=80618
loop_xfade=20282
lovel=0
lpc=jfbOQWWbn8FrLQtBKFyTP/upJ8AXh/VAHtinPuk/aj5ax6ZA87wPwJF6+UDSxzLA5s3CQPvlkL//J2JAXGCuP+2FLUAYbAJAXPkEQCFjjT8x4K5AXOtHwQN69r9AreVA
lpc_rms=-27.88
sample=Flute2_sustain_MF_C#6.opus
</region>

<region>
hivel=127
key=C5
loop_end=250894
loop_mode=loop_continuous
loop_start=81557
loop_xfade=20519
lovel=0
lpc=J/oqQuzf6sJs1gBDy+iEwuQHuz+CXP1BHEm4wbHzg8Fr/yxCab8HwoWNiEEuj4HBHo61QQCa2cEcKcFBVx4dwa2B1sDwDDRBWkT6Piv9LsHfR2VBjO18wU1MK0HSigHA
lpc_rms=-25.26
sample=Flute2_sustain_MF_C5.opus
tune=+1
</region>

<region>
hivel=127
key=C6
loop_end=248857
loop_mode=loop_continuous
loop_start=80895
loop_xfade=20352
lovel=0
lpc=VURKQmeOVsJ5ZeFBeIPNQExrhMHuilBBgMEIQRPXMsEsDSZBMQY9wBS8LEH44L7A+esfQWtGZr47/6bArfcSQTbinD8wot+/XkHeQB0E6b/3P8RA3SM4P7fydsEWYDJA
lpc_rms=-20.38
sample=Flute2_sustain_MF_C6.opus
</region>

<region>
hivel=127
key=D#4
loop_end=244086
loop_mode=loop_continuous
loop_start=79344
loop_xfade=19962
lovel=0
lpc=nYPYQSUZgsK1y2ZC/cXuwR/2dkHV78k/2XcuwdFpmkDF9vk/Fm+swGzQoUDr8t7A+OMUQXIM0cCkQHpAaXnVvzN56L8KEec/uIT9PwfvisD9uKBAYK2cwKIhhj/xB8I/
lpc_rms=-31.66
sample=Flute2_sustain_MF_D#4.opus
tune=+1
</region>

<region>
hivel=127
key=D#5
loop_end=252486
loop_mode=loop_continuous
loop_start=82075
loop_xfade=20649
lovel=0
lpc=qXmmQef/LcKUzRJC0fOPwZwCjz/NdGJB5cCBwbMlFkFXWea+S2GpvxjqLj+OkiHAzXi6P9t2u78F/0NAxSYBwCBff0DU9ZvAD8mpQCuLpr8jB13AmsibQMAn9cD50cVA
lpc_rms=-31.18
sample=Flute2_sustain_MF_D#5.opus
tune=+1
</region>

<region>
hivel=127
key=D#6
loop_end=245867
loop_mode=loop_continuous
loop_start=79923
loop_xfade=20107
lovel=0
lpc=QTokQkiYD8JwyaJB2gPnP9IleMGIDNFBFDv2wLJeg7/B3VlBOq/twG9ba0FSIYXAixzXQE7Sy79RugZBPAt9QOXY8T6PwddAzkSNwPePfcGnbTpB6Xzlv5OMNkBa4xVA
lpc_rms=-26.12
sample=Flute2_sustain_MF_D#6.opus
</region>

<region>
hivel=127
key=D4
loop_end=255257
loop_mode=loop_continuous
loop_start=82975
loop_xfade=20875
lovel=0
lpc=To53QTSUDsLdxftBHZ2bwVEITUHXlNC+hum2wFHihT83pSVAYOF5wPrljkBoRpXA76OHQEZTFsBS8wJA0IyWv0bKmr/qSqi9zNElQGIQ3L8KFPg/hboYwH315T1NznY/
lpc_rms=-37.91
sample=Flute2_sustain_MF_D4.opus
tune=+1
</region>

<region>
hivel=127
key=D5
loop_end=256510
loop_mode=loop_continuous
loop_start=83383
loop_xfade=20978
lovel=0
lpc=0OmaQePLKcI4NxNCsmx6wXwULcDNM4RB7u5zwcgXWkAHYJxAYUR1wMW1iT+kBvm/uJzLP6WkKcC3yMdAkKSewJkkDkCFfPC/S7aiPxx0P0BVjiHA32S2P9oWh8Cfi2FA
lpc_rms=-29.91
sample=Flute2_sustain_MF_D5.opus
tune=+1
</region>

<region>
hivel=127
key=D6
loop_end=246428
loop_mode=loop_continuous
loop_start=80105
loop_xfade=20153
lovel=0
lpc=HikDQtxM3sG2Bm5B2eo4wCMzPsBMm1JB/2dswAUKNEB7htBAHXFGv9z9s0BK1VY/766VQI4JwT6H4pJAM+thQMo4GT+Nc6JAgIMrQCoUwT/d0W7B8Oh0QOARtkDrqBFA
lpc_rms=-25.45
sample=Flute2_sustain_MF_D6.opus
tune=+1
</region>

<region>
hivel=127
key=E4
loop_end=244344
loop_mode=loop_continuous
loop_start=79428
loop_xfade=19983
lovel=0
lpc=lNb5QUAUmMJ64IJCSmrqwRDIU0FSZEk/RWQNwV12HkCiwt5AAppQwS9ULkHy3sXAVZjKQJNhysCtVFJAZwm1Ph58Mb5PQQvANOqrP6lqTsAHLJdAo2+xv+PZF0Dd+xbA
lpc_rms=-29.49
sample=Flute2_sustain_MF_E4.opus
</region>

<region>
hivel=127
key=E5
loop_end=254835
loop_mode=loop_continuous
loop_start=82838
loop_xfade=20841
lovel=0
lpc=YxrUQcceX8IsDUxCo33AwZ2uxL8z8VlBIPfUwDwX2L9zkcJAtiuYwKMEcEDKSb7ApTmWQKERbcAx3dhAlAwGwGRJ1r8I8A5Ae2OsvnXR5r/aeUxAys76P0cI7sCk9sFA
lpc_rms=-28.81
sample=Flute2_sustain_MF_E5.opus
tune=+1
</region>

<region>
hivel=127
key=E6
loop_end=249967
loop_mode=loop_continuous
loop_start=81256
loop_xfade=20443
lovel=0
lpc=I+sbQmyUDMJCBYFBMFMkwO++9cBZcqBBJjVKwPfxaT/RAQ9BWqvlwMqQMEGwVEHABbpqQOTyP0AZZaA/sCCxPxZLtUA/Of2/HCHBwdAHcEG9GJhAMZWPwG3OMEGJJzzB
lpc_rms=-23.80
sample=Flute2_sustain_MF_E6.opus
</region>

<region>
hivel=127
key=F#4
loop_end=246896
loop_mode=loop_continuous
loop_start=80257
loop_xfade=20192
lovel=0
lpc=/j8pQgzD2sK/4d1CipGGwlP5BEKsZaRAV1YEwvSsrUGEr51AnctgwZuaI0EwHwXB0WByQGFLIEA5ER3A3bXzv3Ij3D8UWvu/RLffQFiDwcDhV4RAAqyCwNHF2j9IQHk+
lpc_rms=-26.54
sample=Flute2_sustain_MF_F#4.opus
</region>

<region>
hivel=127
key=F#5
loop_end=256208
loop_mode=loop_continuous
loop_start=83284
loop_xfade=20953
lovel=0
lpc=txsAQnDjfcJ761dCcOGKwWwZKMEF2udBRnO/wXvcHEDwnSZBc2OvwKT0GUF2UzPBXBaKQJqKK7/baANBB0aQwM6+TL9J6iLAjlolQYYJA8GpImhABrf2QEv3YMEnRCtB
lpc_rms=-25.29
sample=Flute2_sustain_MF_F#5.opus
</region>

<region>
hivel=127
key=F#6
loop_end=247047
loop_mode=loop_continuous
loop_start=80307
loop_xfade=20204
lovel=0
lpc=S5ugQkQokcIoMM5Bkjs4QQqaDMKwwGJCMy5LwKXzacFACQ1C7WqMwf65s0E4jPRAROiDP4oRBEHcJYFBgX+/wGZKFsJxF+FB9QFhQdQQ3MA3JcxB07ClwX65mL+/K9NA
lpc_rms=-14.80
sample=Flute2_sustain_MF_F#6.opus
</region>

<region>
hivel=127
key=F4
loop_end=246642
loop_mode=loop_continuous
loop_start=80175
loop_xfade=20171
lovel=0
lpc=M3UVQvbpucKI7KRCDlkDwr5ix0CkHhRBjX+NwSTZQEFJmt2/mBPhwG6s/0BNopvAz6LxQLufIsF1a8tAetdPwGdLMD+F/xdA7VkAv4dDsT+AqNm/K6IqwHJFiz8nVbU/
lpc_rms=-27.38
sample=Flute2_sustain_MF_F4.opus
</region>

<region>
hivel=127
key=F5
loop_end=255777
loop_mode=loop_continuous
loop_start=83145
loop_xfade=20918
lovel=0
lpc=HocuQhxSosJbToJCgvXQweFhHcE6bRJCPk7LwTHubMCJAa9B2cKCwQtPP0HqhtHAj4aAQGQsTsGiF51BxogawDIEzsDer+Y/HP7QQBTjocAFMUZAbGmNvzGJlMBa9BxB
lpc_rms=-24.41
sample=Flute2_sustain_MF_F5.opus
tune=+1
</region>

<region>
hivel=127
key=F6
loop_end=250595
loop_mode=loop_continuous
loop_start=81460
loop_xfade=20494
lovel=0
lpc=gcwyQs8hFcJhyHFBPXuXQLDHksFNR99BOxQEwZ1nrL8cHWRBlV4vwSN/YkED9anA/lbLQDpzTEDD/s2/JDYWQS1wc8Dc0vLBUly2QSe1QcDLhss+5ZAmQYhkRsHxS4NA
lpc_rms=-21.65
sample=Flute2_sustain_MF_F6.opus
</region>

<region>
hivel=127
key=G#4
loop_end=240825
loop_mode=loop_continuous
loop_start=78284
loop_xfade=19695
lovel=0
lpc=B8HQQfSJgMJYH3ZCD9MTwtj9kEGiEO5A8K6kwX0K60BoJqdAFzm8wLgY1kDOGcXA5EkNP5z2RDutKZZAo2jHwGNshUCNXInADz29QC5H07/w978/t+45wBANIsDs6kVA
lpc_rms=-29.36
sample=Flute2_sustain_MF_G#4.opus
tune=+1
</region>

<region>
hivel=127
key=G#5
loop_end=252684
loop_mode=loop_continuous
loop_start=82139
loop_xfade=20665
lovel=0
lpc=ldUiQkcRecLF9UVCKc4twS+CEsG1aptBeVwewBIVAMH7O3BBdhyswGdwHkGzdxHBou4eQSgf8j6nfzhA/iNyQLRCJr8lX6C+ReQOQaql8b/bOu4/TUmcQK/mVsB25SVB
lpc_rms=-23.57
sample=Flute2_sustain_MF_G#5.opus
</region>

<region>
hivel=127
key=G#6
loop_end=247030
loop_mode=loop_continuous
loop_start=80301
loop_xfade=20203
lovel=0
lpc=hSHDQuoCocJQJxpCN3W6QFNS1sGnWo1C71erwagEdEFEbthBYoYawVW49kG/8RjBnyrBQZxfa8CU5A/CNZArQZI5mUGKOk/ACPs2QaiI7sBHthDB8tlOQPxaPsEkVKhA
lpc_rms=-14.51
sample=Flute2_sustain_MF_G#6.opus
tune=+1
</region>

<region>
hivel=127
key=G4
loop_end=252009
loop_mode=loop_continuous
loop_start=81920
loop_xfade=20610
lovel=0
lpc=ejj3QTmDmcJrNYpCk3HJweiL5cCutd9BpIm+wQMFscB8zqFBHA83wUoalECfw5LA/ly/P2w1ZcAbOBZBWAiRwFk5P8AXiwZA311hPz1lir/TNXxAI9yqwJcx8z+6YN0+
lpc_rms=-27.00
sample=Flute2_sustain_MF_G4.opus
</region>

<region>
hivel=127
key=G5
loop_end=255245
loop_mode=loop_continuous
loop_start=82972
loop_xfade=20874
lovel=0
lpc=8GEDQtUdg8JTG4dCRbobwnTlQEGhyN1AIlebwKWvAUBhbMi/pGLEQGb857+nCvO/SyEGQdZMZcCMmEG/1IWRQFfjWr/iCUk+KWHGQE6508AeLfZAb50hv7Ujz8Ao6CNB
lpc_rms=-24.75
sample=Flute2_sustain_MF_G5.opus
tune=+2
</region>

<region>
hivel=127
key=G6
loop_end=249030
loop_mode=loop_continuous
loop_start=80951
loop_xfade=20366
lovel=0
lpc=DqV1Ql1aQ8L125xBR0anQNeyrcGIixdCzv0Iv1sJQMFl069BIN+twKm2mUFvwD8+KogZQTU3IMAtto1AOMClwb6r00CK0VlBbwF8wF42EkEb4S2/JLE5wHudgUBHECTA
lpc_rms=-17.06
sample=Flute2_sustain_MF_G6.opus
</region>
</group>

<group>
amp_veltrack=0
ampeg_attack=2
ampeg_release=0.35
group_label=FF
lpc_hicc1=127
lpc_locc1=85
volume=-3

<region>
hivel=127
key=A#4
loop_end=250442
loop_mode=loop_continuous
loop_start=81410
loop_xfade=20482
lovel=0
lpc=/SmrQXKZXMJCdmNChDgCwoEfREF6fHRAcSZXwZBhEkEdGLg/j1LzwCqsBEFE7/3AflAHQZUv3MBzYAFAUwf2P0cGBcCGGXk/zGR1P1wpuL+BuyK/IJgUQCtGFcC0lq4/
lpc_rms=-20.65
sample=Flute2_sustain_FF_A#4.opus
tune=+1
</region>

<region>
hivel=127
key=A#5
loop_end=257832
loop_mode=loop_continuous
loop_start=83813
loop_xfade=21086
lovel=0
lpc=vDGSQVNw1cGhSrlBmknJwIVhjMCG+0dBCyEGwaYwoED6FoRAJsjRwCFAAUGdA8q/d+MEQBFiLL2XHohA6lEewKD+/T9sElBARYT3v6lgYkAYhu4/nDmCwBnsFEFV7JHA
lpc_rms=-22.48
sample=Flute2_sustain_FF_A#5.opus
tune=+4
</region>

<region>
hivel=127
key=A4
loop_end=254996
loop_mode=loop_continuous
loop_start=82891
loop_xfade=20854
lovel=0
lpc=nzOqQWk6Y8KZiWpCTa3Yweofq8Cn+L1BrleDwSFgzsACOZFBfJRlwWbptUCZQOY/TpsKwMajbcByCd1AmgxuwD0yuL8GBQBAcKNHQGUQpcDaD70//q9BQIkcn8AN8iZA
lpc_rms=-19.97
sample=Flute2_sustain_FF_A4.opus
tune=+1
</region>

<region>
hivel=127
key=A5
loop_end=250034
loop_mode=loop_continuous
loop_start=81278
loop_xfade=20448
lovel=0
lpc=OmbbQdK0IcLTywZCyLLBwHH/4cB1IylBqBuvQNv29cBOmwtBEARdwIqxGkEiCQnBJ2kQQdwThkD5BRPAFMOeP6TSnUDTU4w/ly0nvzLqRkAN/tdAcKRkwEVyGkAgPJdA
lpc_rms=-18.89
sample=Flute2_sustain_FF_A5.opus
tune=+1
</region>

<region>
hivel=127
key=B4
loop_end=254662
loop_mode=loop_continuous
loop_start=82782
loop_xfade=20827
lovel=0
lpc=u90BQsMXr8KzfrFC5vEtwkjOnb8F4i5CKhNRwoYli0GFI4tBvQH8wRdi4EFrpW/B2FuFQFNrSz/fIjNAwHMYwRgzyUDDcL6/SPQBQDQ0GEASI43AON00QHdHmsBrQVRA
lpc_rms=-16.43
sample=Flute2_sustain_FF_B4.opus
tune=+2
</region>

<region>
hivel=127
key=B5
loop_end=255129
loop_mode=loop_continuous
loop_start=82934
loop_xfade=20865
lovel=0
lpc=6u4vQt5oUMJsPAJCS3QFwDPqXMGUyaJBrKRSwFhdQsF9JJJB6CcfwUEFG0G53zXA6gCLv8U8oUAwcSc/6ctIP5G0jUDa+wzBCsBNQSztJb+L0rLA3mY1QUUsi8BMvCzB
lpc_rms=-14.47
sample=Flute2_sustain_FF_B5.opus
tune=-2
</region>

<region>
hivel=127
key=C#4
loop_end=252944
loop_mode=loop_continuous
loop_start=82224
loop_xfade=20686
lovel=0
lpc=Z7W2QeRvSsJmDRtC4Q9CwXdRgcDZCWlBxOYFwcmMNb/eM4k/AU0UwK6pb72e/EJA9q+JP+36KcB//rY/Yi8mwK9jMUC9ySy/NPKbP+DYpr9tr9a+faWEP6V4/r96fQBA
lpc_rms=-27.47
sample=Flute2_sustain_FF_C#4.opus
tune=+1
</region>

<region>
hivel=127
key=C#5
loop_end=253076
loop_mode=loop_continuous
loop_start=82267
loop_xfade=20697
lovel=0
lpc=n1lSQdlu28GDuJJBqlRwv2/M6MBRZQlBRdHmv3Xk2MC+4OhA2gFFwPowI0BLrDvAYY0AQAQYf787iwG/kfEiQC7HQMChdB6/0A+bQHWoUsBM/J0/17rIvuLv6r/1dvQ/
lpc_rms=-25.02
sample=Flute2_sustain_FF_C#5.opus
tune=+2
</region>

<region>
hivel=127
key=C#6
loop_end=252444
loop_mode=loop_continuous
loop_start=82061
loop_xfade=20645
lovel=0
lpc=GDCBQXvKR8EhEJZAuYMdQDhUO8DhzMlAHaI9PEIeqD31+pFAjvGPv8i9k0CTK9m/z2aaQCFk1b5mevc/8fk7QDSPgD5cnvs/z8MkQMT1Lj/qTURASgT0wJiLNb5DOapA
lpc_rms=-26.16
sample=Flute2_sustain_FF_C#6.opus
tune=-2
</region>

<region>
hivel=127
key=C5
loop_end=251409
loop_mode=loop_continuous
loop_start=81725
loop_xfade=20561
lovel=0
lpc=tceOQZeoNcLNIjxCnZvDwfj3AcA427lBUSzJwYXGykAB4jpBRLV3wbPmQEHmfMjAeDJRPyw8MD+dgihAAGaTwH3s0z9V430/j58yvU/ShD45NfG+ib/3v3Zusj/n9S8/
lpc_rms=-23.95
sample=Flute2_sustain_FF_C5.opus
tune=-1
</region>

<region>
hivel=127
key=C6
loop_end=256526
loop_mode=loop_continuous
loop_start=83388
loop_xfade=20979
lovel=0
lpc=hMi3QbDR1MHdGpRBhsFMwMEGqsAQyj1BuCGYwJumnb1BaslAK6aJwAifrEB+HWa/QuP5P1KSUT/2NQ0/MCZQQFGStr8HBCRAMGlHQAAoZMA26aNAjq04QBB1ScHq0JtA
lpc_rms=-21.23
sample=Flute2_sustain_FF_C6.opus
tune=+1
</region>

<region>
hivel=127
key=D#4
loop_end=254274
loop_mode=loop_continuous
loop_start=82656
loop_xfade=20795
lovel=0
lpc=9X12QQNJC8KobuNBDx02wQR9Db/BDiRBgYcEwScCBsCdNg5BzxEWwZdxvUA9Riy/UPxDwOm4+D+o4Ko/sWImwJUMNUAePynAmOEeQMegQb9M9mm/N41SvSjuCj8iwRc+
lpc_rms=-28.65
sample=Flute2_sustain_FF_D#4.opus
tune=+1
</region>

<region>
hivel=127
key=D#5
loop_end=260085
loop_mode=loop_continuous
loop_start=84545
loop_xfade=21270
lovel=0
lpc=5f8fQfmalcHmfDdBWkeQPRPfycCg2QlBGJI2wNAWi8An47pAatAFwE+A1D4+6Oi/PP1NQLfvMMDSVEg/hNr0P496dsAUAVNAcX+NP8As6r884Zc/LJT9v3jiH7/C/QBA
lpc_rms=-29.85
sample=Flute2_sustain_FF_D#5.opus
tune=+2
</region>

<region>
hivel=127
key=D#6
loop_end=254027
loop_mode=loop_continuous
loop_start=82576
loop_xfade=20775
lovel=0
lpc=k/gOQubi28GEqi5BxfztQK5cAcHBAi1BJ/VyQAAOF75L7C1B9jcTwMqlKUGDTym9BXveQFfzN0B2C51Ay3SYQIHfmECwIwpAx8MOQU7WxsFSzD9BFz4aQSNP4cCvIfdA
lpc_rms=-18.77
sample=Flute2_sustain_FF_D#6.opus
tune=+3
</region>

<region>
hivel=127
key=D4
loop_end=251746
loop_mode=loop_continuous
loop_start=81834
loop_xfade=20588
lovel=0
lpc=+CFvQc8r/8FZN7BBSVSOwPgQisBe9AJBt5oGwOK5VsAbEQ9AXrkYwAYMnD/53Co/UQXlPsEeUr+3JFQ/dq3Iv6oa+T9v+BK/Pn/YvjnebD8dp7S/CQA1vzJ0A0A55i6/
lpc_rms=-31.09
sample=Flute2_sustain_FF_D4.opus
tune=+2
</region>

<region>
hivel=127
key=D5
loop_end=252868
loop_mode=loop_continuous
loop_start=82199
loop_xfade=20680
lovel=0
lpc=ZqCTQYDyL8KU0xhCPZMiwdNqUMGlnMRBjbxowYvvtsDJhFZBpWUJwfj9j0DGKILAlxeKQBp1mcDPy11Aj6NYQOvk5MD4HKo//eu6QMc50sBoDK5ADRsWvoQc2sDWm59A
lpc_rms=-21.61
sample=Flute2_sustain_FF_D5.opus
tune=+1
</region>

<region>
hivel=127
key=D6
loop_end=261012
loop_mode=loop_continuous
loop_start=84846
loop_xfade=21346
lovel=0
lpc=yxhEQayDFMHP6JRAdhYdP0Kt7L9hfbdAg3q1vwPSkT+WnWVAgqpWvyEkIkAsAVY/AgfDPwpERz9W9vc/ohDBP0C71D5qNxxAhyKnP8Q59D5fqrnAh58MQAj39z9U/wc/
lpc_rms=-27.51
sample=Flute2_sustain_FF_D6.opus
tune=-6
</region>

<region>
hivel=127
key=E4
loop_end=254380
loop_mode=loop_continuous
loop_start=82690
loop_xfade=20804
lovel=0
lpc=VFu6QaT2U8LozwhCLY7sPvE74cA9EQBB1KSnwDV0lMB6WCxBDEJbwY6UDUHgLpm/aXPvPy7WXb92nZXACbr+PxIEm0BGU1XAg2k9va3PI7/9M4w/Z/KivzHM4T91tU6/
lpc_rms=-24.67
sample=Flute2_sustain_FF_E4.opus
</region>

<region>
hivel=127
key=E5
loop_end=253065
loop_mode=loop_continuous
loop_start=82263
loop_xfade=20696
lovel=0
lpc=/BeOQRXQ9MHhPZlBfa9gwHwUDsH6o41BYF86wSTcLD9zHshArvd6wICu5z+n18G/W1Y4vo4p1L8SK69ALsxdwBJPfz9KkwJAyZblPeOVQr/qsC+/8iOXvjrV879lP4xA
lpc_rms=-25.66
sample=Flute2_sustain_FF_E5.opus
</region>

<region>
hivel=127
key=E6
loop_end=252552
loop_mode=loop_continuous
loop_start=82096
loop_xfade=20654
lovel=0
lpc=B9MzQi25NcJ2jbhBP9xRvxfMeMBpVBxB/Hi3QPmEFUBhh6ZAXsAlvrH3MEERxDzAwOoZQcqZ6j7swadAfuCGQJFiF0BWuNJAN+kCws1Q00F9eo5A8v0dwf32ZEEa4ezA
lpc_rms=-15.66
sample=Flute2_sustain_FF_E6.opus
tune=+3
</region>

<region>
hivel=127
key=F#4
loop_end=252551
loop_mode=loop_continuous
loop_start=82096
loop_xfade=20654
lovel=0
lpc=Cx9nQRtoBsJ81ttBjksCwdng1r8AGsdA49sHwWmdg0BFh1dAxlbMwKIgtUC6jarA2gxvQKTEEr8d0wvA+McAQGRJYT7XcIA/ECjzvzomjL+2Svk/ehCjvs9mqj2GPG+8
lpc_rms=-27.99
sample=Flute2_sustain_FF_F#4.opus
tune=-1
</region>

<region>
hivel=127
key=F#5
loop_end=251131
loop_mode=loop_continuous
loop_start=81634
loop_xfade=20538
lovel=0
lpc=D3VuQRhf0sF2+5dBT84XwI6WH8EORXhBD7vPwFkIqMBLTCtBuw7dwOkmHEBtLqg9lL4fQH4ocsCUtxRAQhFMQLt1hcAzTOU/0mpXQHl1kcAxvmdA7F5lvEsXUMD/CpBA
lpc_rms=-25.99
sample=Flute2_sustain_FF_F#5.opus
tune=-5
</region>

<region>
hivel=127
key=F#6
loop_end=255329
loop_mode=loop_continuous
loop_start=82999
loop_xfade=20881
lovel=0
lpc=+eAlQmxbHsJRgaJBtDtrQG4/psBRCD1B/mHBQPlmEcAfBwtBVPNIQPpXDkEP350/cIUPQciSd0BJKqhAdVcMQZucBML7sPRBNSMEQDoaHsE3WIlBlFkNwQxNmD9HtpZA
lpc_rms=-16.16
sample=Flute2_sustain_FF_F#6.opus
tune=-2
</region>

<region>
hivel=127
key=F4
loop_end=249289
loop_mode=loop_continuous
loop_start=81035
loop_xfade=20387
lovel=0
lpc=+66JQZOZJsLaihFCYexjwdcNyL/3nk9Bk1QmwfjKIMBviQRBZAQDwavSwkCyuDa/HgyZv+0+Ab2amZW/pU9Wv7GVW0Cblh7AKktcQEML/b+mg8+/w6IyP8bgST/OUiq+
lpc_rms=-26.23
sample=Flute2_sustain_FF_F4.opus
</region>

<region>
hivel=127
key=F5
loop_end=255140
loop_mode=loop_continuous
loop_start=82937
loop_xfade=20866
lovel=0
lpc=3B67QaBrMMJFyfVBHKM5vy0zdcFMIXNByMlIwEMj+sCVKQtB460MwE6MLkDpyKnAKgXnQE5GocAF4I8+kzKDQN5/6r+ctZE/O+v6vhGlO8Bk8bZA6iiOv5E1D8CD+E1A
lpc_rms=-21.71
sample=Flute2_sustain_FF_F5.opus
tune=+1
</region>

<region>
hivel=127
key=F6
loop_end=252682
loop_mode=loop_continuous
loop_start=82138
loop_xfade=20665
lovel=0
lpc=+9nbQduv8MHkN2ZB/sTIPd6OzMDenD5BVfTVv0RWVL85X4ZAVPzGvp0UhkCk2XS+PJdnQP/seT+UxeA/QGXjP/dyS0AsOrnBVsC1QcbqH8BtNaLAw985QUYmMsGBn6VA
lpc_rms=-19.40
sample=Flute2_sustain_FF_F6.opus
tune=+1
</region>

<region>
hivel=127
key=G#4
loop_end=250976
loop_mode=loop_continuous
loop_start=81584
loop_xfade=20525
lovel=0
lpc=q4huQVqsBMI597dBrROdwNEtGED3lg0/3kkiwEEMV8CFrelAt9LXwAhCmkBBtw/Aoc41QORpWcA5WDy+njPEPfSGSUCk8wbAYViDPySDeb/cuYA/HCaTv6Y7o77DU00/
lpc_rms=-25.53
sample=Flute2_sustain_FF_G#4.opus
tune=+1
</region>

<region>
hivel=127
key=G#5
loop_end=256641
loop_mode=loop_continuous
loop_start=83425
loop_xfade=20989
lovel=0
lpc=JBTOQQZXGsJPwdxBa+lMwEYiB8FHiFFBYhG5PZzsFcEue05BtW7TwMPPAEEdGjrAdt8TQABjAkBB7J2/L2MIQNHrOkD9f6m/GX+dQFJnk78T2YE/tFThP3P8tz2m2JFA
lpc_rms=-20.31
sample=Flute2_sustain_FF_G#5.opus
tune=+3
</region>

<region>
hivel=127
key=G#6
loop_end=255664
loop_mode=loop_continuous
loop_start=83108
loop_xfade=20909
lovel=0
lpc=+NZkQhv3GcIgk5NBi0YTQXGFIMFct/VBoIKWP+C91EBE+61Ba2KEQICgO0FALrtAAvQaQRBPVEGj2QLCHAu5QB5/w0HMS33BNPiNQXfD3cB4NQzBzRwgQQl+OsFtsci/
lpc_rms=-11.93
sample=Flute2_sustain_FF_G#6.opus
</region>

<region>
hivel=127
key=G4
loop_end=254696
loop_mode=loop_continuous
loop_start=82793
loop_xfade=20829
lovel=0
lpc=xP1/QageA8IocpRBkGORQJYbBcHBTZ5A2WtXwBXh9r/BNvdANbrpwAqlM0AiwJa/biryP9wyTr6W7njAgmp7QILOlD8C3QzApulovVQy7r+a0YRA+KZSPlRPvsAUyIhA
lpc_rms=-25.34
sample=Flute2_sustain_FF_G4.opus
</region>

<region>
hivel=127
key=G5
loop_end=252996
loop_mode=loop_continuous
loop_start=82241
loop_xfade=20690
lovel=0
lpc=z0k0QWzsjMEk3VFBa8AwwCx1g8AS2RpB8uDFwLpssr7wxYNAtZmcv7Af+z8wf4W/adcCP58kXL+SNGFAkT3QvonW0776trG+4IPTP4pC0r25ttk/s/WWP/UUl8CWMKtA
lpc_rms=-28.98
sample=Flute2_sustain_FF_G5.opus
tune=-2
</region>

<region>
hivel=127
key=G6
loop_end=246576
loop_mode=loop_continuous
loop_start=80153
loop_xfade=20165
lovel=0
lpc=HhM/QisSA8JPfvU/RmMjQQKGqsB0Z1dBXm1TQC1ooj/ZL3ZB69RiwJo3UUF9/9C+5BQEQSTtNkDMlkNB7NsTwvfqXUHwt61BPqMYwfYLGUEEr4LAYrSYv7E/dkAbkpXA
lpc_rms=-13.35
sample=Flute2_sustain_FF_G6.opus
tune=+2
</region>
</group>